<svg width="512" height="512" viewBox="0 0 512 512" fill="none" xmlns="http://www.w3.org/2000/svg">
  <rect width="512" height="512" rx="148" fill="url(#bg)"/>
  <rect x="44" y="44" width="424" height="424" rx="120" fill="white" fill-opacity="0.08"/>
  <path d="M157 118C201 118 239 136 272 170C300 199 320 238 320 281C320 318 307 352 282 380C255 412 219 428 173 428C137 428 106 416 80 393L110 355C128 371 149 379 172 379C204 379 229 368 246 345C260 327 267 306 267 283C267 256 256 233 233 212C212 193 187 183 157 183C144 183 130 185 116 190V134C129 123 143 118 157 118Z" fill="white"/>
  <path d="M249 95C288 95 323 109 354 136C388 166 405 204 405 251C405 298 389 337 357 368C325 398 287 413 243 413H220V349H243C271 349 294 340 311 323C327 307 335 284 335 255C335 226 326 202 309 185C292 168 270 160 244 160C221 160 201 166 184 179L150 141C178 110 211 95 249 95Z" fill="white" fill-opacity="0.96"/>
  <rect x="88" y="274" width="22" height="96" rx="11" fill="white"/>
  <rect x="124" y="242" width="22" height="128" rx="11" fill="white" fill-opacity="0.92"/>
  <rect x="160" y="217" width="22" height="153" rx="11" fill="white" fill-opacity="0.84"/>
  <rect x="196" y="256" width="22" height="114" rx="11" fill="white" fill-opacity="0.72"/>
  <defs>
    <linearGradient id="bg" x1="64" y1="56" x2="442" y2="459" gradientUnits="userSpaceOnUse">
      <stop stop-color="#8C43FF"/>
      <stop offset="0.52" stop-color="#6B63FF"/>
      <stop offset="1" stop-color="#34B4FF"/>
    </linearGradient>
  </defs>
</svg>
